PathFileType	3	(X/Y/Z)	C:\Users\hrist\Documents\PhD\NeuroM Model Experiments\Complete_Controller_Data_Collection\S2_M\LG_Walk_Slower\LG_Walk_Slower01.trc																																																																																																							
DataRate	CameraRate	NumFrames	NumMarkers	Units	OrigDataRate	OrigDataStartFrame	OrigNumFrames																																																																																																			
100	100	9	35	mm	100	612	481																																																																																																			
Frame#	Time	R.ASIS			L.ASIS			V.Sacral			R.Thigh.Upper			R.Knee.Med			R.Knee.Lat			R.Thigh.Rear			R.Thigh.Front			L.Thigh.Upper			L.Knee.Med			L.Knee.Lat			L.Thigh.Rear			L.Thigh.Front			R.Shank.Upper			R.Ankle.Med			R.Ankle.Lat			R.Shank.Front			R.Shank.Rear			L.Shank.Upper			L.Ankle.Med			L.Ankle.Lat			L.Shank.Front			L.Shank.Rear			R.Toe.Tip			R.Heel			R.Toe.Med			R.Toe.Lat			R.Midfoot.Lat			R.Midfoot.Sup			L.Heel			L.Toe.Tip			L.Toe.Med			L.Toe.Lat			L.Midfoot.Lat			L.Midfoot.Sup		
		X1	Y1	Z1	X2	Y2	Z2	X3	Y3	Z3	X4	Y4	Z4	X5	Y5	Z5	X6	Y6	Z6	X7	Y7	Z7	X8	Y8	Z8	X9	Y9	Z9	X10	Y10	Z10	X11	Y11	Z11	X12	Y12	Z12	X13	Y13	Z13	X14	Y14	Z14	X15	Y15	Z15	X16	Y16	Z16	X17	Y17	Z17	X18	Y18	Z18	X19	Y19	Z19	X20	Y20	Z20	X21	Y21	Z21	X22	Y22	Z22	X23	Y23	Z23	X24	Y24	Z24	X25	Y25	Z25	X26	Y26	Z26	X27	Y27	Z27	X28	Y28	Z28	X29	Y29	Z29	X30	Y30	Z30	X31	Y31	Z31	X32	Y32	Z32	X33	Y33	Z33	X34	Y34	Z34	X35	Y35	Z35
612	6.11	-174.5989188	975.8531456	-603.1340915	89.65998913	986.0291608	-605.0237033	-36.96084558	1004.498695	-791.913393	-222.2978487	749.9094831	-707.0351127	-48.20441504	498.5291922	-713.1675085	-184.0163623	493.1337979	-727.282994	-202.033269	641.9943036	-716.7735203	-132.6720111	693.4003163	-581.6815564	151.5713114	796.7682612	-678.3125203	19.8335289	496.6400135	-554.5657111	149.486918	498.3493002	-582.6206942	150.1614229	645.905582	-629.2941264	99.70665497	735.509141	-526.0518257	-182.5000917	445.483178	-743.102923	-52.56335347	97.44459613	-833.5065866	-135.0395128	75.59293211	-872.5209954	-120.4330077	380.2963922	-695.1456336	-190.2430488	366.9137685	-777.9513552	156.9084294	460.7715412	-572.0792554	90.73354888	105.716069	-406.9341655	170.1711467	85.00765707	-449.6447851	121.3121912	439.5859144	-496.5850041	174.6750055	392.8620476	-551.506392	-105.5514073	33.03117681	-678.2352549	-80.58047632	37.97420704	-940.6095537	-70.03384507	26.80790408	-722.9942932	-178.4400928	24.51123544	-738.974207	-168.0969386	35.17283259	-782.449678	-74.05249922	51.4588245	-756.347767	111.509434	21.84825917	-475.2820856	173.9545311	134.0986147	-251.6172578	131.4510018	100.2118209	-279.7216477	234.4713771	85.32344401	-308.1990335	219.0159387	81.23824198	-343.4822714	123.8851054	98.11560996	-315.3626348
613	6.12	-173.1495437	975.4444904	-599.0613845	90.9894791	986.1012939	-599.5173736	-34.52662198	1004.83975	-787.0451795	-220.6569668	750.0177636	-704.1289706	-47.33650724	498.2542948	-710.6811726	-183.1138037	493.3548135	-725.5936901	-200.7091231	642.1139136	-714.365203	-131.9033881	692.741744	-578.6000578	153.4434023	797.1711176	-672.6449966	20.82005963	496.4752537	-552.5648909	150.7320451	498.3805942	-578.4749466	151.7811664	646.2265794	-624.017006	99.6301405	735.0731359	-521.5060643	-181.7258957	445.7808237	-741.6321146	-52.53185715	97.78673194	-833.0756507	-135.052821	76.22518644	-872.3572033	-120.0930585	380.2082717	-693.6614431	-189.5149926	367.4285221	-776.8738057	158.1499194	460.6781413	-568.2394187	90.78713419	104.8648766	-405.2524848	170.3959956	84.4974224	-447.782424	121.7144105	439.1493063	-493.1976431	175.6075834	392.6632993	-547.9823428	-105.5705722	33.01775641	-678.1830385	-80.62824124	38.59590475	-940.4442081	-70.08203821	26.82912967	-722.9623651	-178.4367848	24.50180206	-738.9555479	-168.0982079	35.18865532	-782.3748738	-74.20106286	51.59864634	-756.1667272	111.5428808	22.20479672	-474.5033488	173.6111667	131.1079799	-249.0848805	131.174982	97.51440663	-277.7683671	234.193111	82.90905039	-306.4738663	218.6947196	79.40282182	-341.6337161	123.6676386	95.77483252	-313.3274662
614	6.13	-171.684587	975.1305609	-594.9357617	92.35439118	986.3680559	-594.0746172	-32.13541532	1005.334251	-782.1625204	-218.9702758	750.1938989	-701.1905348	-46.36294123	498.0949898	-708.2924471	-182.1103542	493.6822663	-723.9071179	-199.2871144	642.3231178	-711.9192639	-130.9807644	692.1548203	-575.4932179	155.3658017	797.8037642	-667.0637486	22.00629649	496.5207102	-550.0546628	152.1123563	498.559412	-574.2659615	153.5191495	646.7467024	-618.4827176	99.71011813	734.9742788	-516.9116756	-180.7671169	446.2462911	-740.0989442	-52.51943978	98.21426873	-832.5873075	-135.0487138	76.92611797	-872.1500157	-119.6390744	380.2113675	-692.1923885	-188.7213664	368.0474176	-775.7866874	159.4684368	460.7658174	-564.2885261	90.91218609	104.143881	-403.6294349	170.6546505	83.99863405	-446.032109	122.3461678	438.8648322	-489.680801	176.6886398	392.6506528	-544.3073653	-105.5815286	33.00198799	-678.1210166	-80.65603216	39.35448392	-940.2445843	-70.11206361	26.84351276	-722.9253089	-178.4390333	24.506035	-738.9415668	-168.0793943	35.23564795	-782.2783597	-74.31834957	51.72391578	-755.9612969	111.5791713	22.5962799	-473.8120578	173.4146036	128.231027	-246.7534062	131.0210654	94.98390992	-275.9963603	234.0294246	80.5599532	-304.9692275	218.5235099	77.64372641	-339.9826585	123.560493	93.6045954	-311.5235764
615	6.14	-170.1584271	974.886879	-590.7799871	93.78639222	986.8329238	-588.7068315	-29.78533418	1005.951286	-777.2813025	-217.2697193	750.4264514	-698.2392905	-45.30522417	498.0152227	-705.9916916	-181.087869	494.1046239	-722.2716449	-197.7843035	642.6035565	-709.4390155	-129.8966586	691.6263378	-572.4108438	157.3790738	798.6495298	-661.563595	23.38494082	496.7037437	-547.1575483	153.6357053	498.8869425	-570.011249	155.4205226	647.4490461	-613.0279214	100.06023	735.1399896	-512.286849	-179.6374428	446.8297528	-738.5165449	-52.52715919	98.71294016	-832.0750253	-134.9942119	77.74262903	-871.8752108	-119.1001777	380.2990426	-690.7163584	-187.8769249	368.7575834	-774.652707	160.8672576	460.9863851	-560.2368977	91.09562416	103.5666336	-402.0529068	170.9728416	83.61655263	-444.4343807	123.1933908	438.7292331	-486.0635244	177.9147202	392.7898275	-540.5867021	-105.5846722	32.98891906	-678.0579915	-80.66795899	40.25252736	-940.0378506	-70.12058371	26.8713362	-722.873569	-178.4421472	24.51972241	-738.9294533	-168.0528694	35.30685408	-782.1657866	-74.42566553	51.8555505	-755.7418932	111.6891798	23.01836604	-473.1794132	173.3022805	125.4286648	-244.6240249	130.9383818	92.56884259	-274.3882882	233.9505732	78.37174641	-303.5143566	218.49224	75.9698902	-338.4603751	123.477493	91.56974016	-309.9991398
616	6.15	-168.5045525	974.682227	-586.6110121	95.31616359	987.4872556	-583.4160576	-27.47163146	1006.656561	-772.4216554	-215.5551994	750.6959887	-695.2840906	-44.19110972	497.9722222	-703.747981	-180.0611948	494.5982749	-720.6738481	-196.2192465	642.9374409	-706.9407862	-128.6586306	691.1415985	-569.3962432	159.5202882	799.6670414	-656.1361659	24.92791261	497.0556479	-544.0135624	155.2866737	499.3707431	-565.7081537	157.4806179	648.2872845	-607.8170377	100.7588254	735.5087505	-507.6879589	-178.3726586	447.4285229	-736.8774111	-52.55891498	99.25167734	-831.5638622	-134.9256957	78.63295065	-871.5485288	-118.5067948	380.4598736	-689.2261136	-187.0105582	369.5228004	-773.458664	162.3679572	461.3258414	-556.1088707	91.34197224	103.1169008	-400.5572275	171.3460593	83.3356264	-442.9685809	124.2165992	438.6943038	-482.412185	179.2477535	393.0536173	-536.8825177	-105.5837712	32.97950436	-677.9985119	-80.64869189	41.26862817	-939.8323873	-70.11125898	26.92641298	-722.79856	-178.4404342	24.54189148	-738.9158436	-168.0341172	35.38767328	-782.0461614	-74.55191279	52.01738021	-755.5091363	111.8853726	23.47524826	-472.5904098	173.2990002	122.630244	-242.6548824	130.9402956	90.20230663	-272.8973383	233.9477152	76.31753642	-302.0511456	218.5697931	74.3652546	-337.0403876	123.4233009	89.63328808	-308.6755637
617	6.16	-166.6776302	974.5002779	-582.4239304	96.9703242	988.2959381	-578.1987595	-25.1816345	1007.413813	-767.6006414	-213.7988642	751.000853	-692.316558	-43.04374311	497.9398032	-701.5235522	-178.9816761	495.1365616	-719.0322188	-194.6007875	643.319379	-704.4395804	-127.3029183	690.7045497	-566.4518764	161.7961763	800.7959121	-650.7763245	26.59413503	497.6163623	-540.7221267	157.0366029	499.970494	-561.4039288	159.650755	649.1974178	-602.8176627	101.8344521	736.0253987	-503.1464891	-177.1284906	448.0229739	-735.2353564	-52.6346875	99.81773943	-831.0402281	-134.9066674	79.53773713	-871.206821	-117.8948222	380.6750499	-687.7335307	-186.1510898	370.3095058	-772.2101491	164.0513918	461.7719554	-551.954014	91.66591917	102.7293575	-399.2193685	171.7521082	83.06657898	-441.6020264	125.3816409	438.7095469	-478.793411	180.6864585	393.4101566	-533.1492631	-105.5871582	32.97202036	-677.9410044	-80.61744432	42.38561458	-939.6183873	-70.1094816	26.99503653	-722.714007	-178.4341738	24.56915174	-738.8988988	-168.0325843	35.46272257	-781.9244695	-74.71120483	52.21571895	-755.2564552	112.1212875	23.9534028	-472.0524093	173.4391249	119.8243196	-240.8141117	131.0500842	87.88123553	-271.4963814	234.0222274	74.29556994	-300.6835154	218.7198601	72.79951802	-335.7410191	123.4667836	87.79345932	-307.413987
618	6.17	-164.6857044	974.3471377	-578.2063008	98.76450924	989.1998975	-573.0467667	-22.89300008	1008.188802	-762.8240068	-211.9759729	751.349169	-689.3326448	-41.88114269	497.9134483	-699.2908215	-177.8298036	495.7126041	-717.3088622	-192.9297317	643.7541518	-701.9483189	-125.8796381	690.3276574	-563.5507419	164.1865319	801.9739867	-645.4806456	28.33979292	498.350587	-537.3281409	158.8497565	500.6066827	-557.1623058	161.8663921	650.1127231	-597.947963	103.2628451	736.6297169	-498.6394846	-176.0756289	448.6595303	-733.6820005	-52.76524165	100.4098495	-830.4847817	-134.9573995	80.45514707	-870.8698545	-117.2974714	380.9362982	-686.2413773	-185.2980132	371.1251926	-770.9348851	165.8986558	462.2771546	-547.8535483	92.05466455	102.3250296	-398.0664649	172.1756102	82.76719648	-440.3422518	126.656884	438.7660155	-475.2120628	182.216626	393.7977907	-529.3999605	-105.598969	32.96513617	-677.8809446	-80.63102714	43.59347754	-939.3815758	-70.14557606	27.05084955	-722.6461598	-178.4262584	24.59125552	-738.8786842	-168.0494911	35.52763547	-781.7963909	-74.90612639	52.43756355	-754.9829193	112.3370564	24.4205838	-471.5769876	173.7099346	117.0789078	-239.1123585	131.2516083	85.67062558	-270.1933574	234.1792701	72.27154721	-299.4994242	218.9161156	71.25083026	-334.5930899	123.6398142	86.06504556	-306.1678953
619	6.18	-162.5815964	974.2463594	-573.965897	100.7055498	990.142429	-567.939663	-20.56799658	1008.959028	-758.0740987	-210.0813875	751.7473648	-686.353478	-40.71461511	497.9000008	-697.0269414	-176.6434017	496.3330579	-715.545954	-191.2098313	644.2511177	-699.4780913	-124.425201	690.0083067	-560.6735864	166.6669328	803.1474264	-640.2559207	30.12419392	499.1533781	-533.8468992	160.6810629	501.2064338	-553.0278708	164.0674413	650.9756515	-593.1693565	104.9902118	737.251966	-494.1278175	-175.159431	449.3599775	-732.2136093	-52.94696809	101.034033	-829.8961864	-135.0390442	81.42085429	-870.5145554	-116.7273853	381.2492185	-684.7315657	-184.4347566	372.0104905	-769.6690438	167.7569151	462.7767997	-543.8820063	92.46718842	101.8880157	-397.0230068	172.6082912	82.44459222	-439.1944607	128.0110309	438.8550247	-471.6453401	183.778371	394.1445442	-525.7538303	-105.6169985	32.95927122	-677.8203412	-80.71873492	44.88035008	-939.1145667	-70.22341002	27.09594392	-722.5977819	-178.4240459	24.59825731	-738.8582881	-168.0872507	35.58975047	-781.6556402	-75.13488095	52.67241455	-754.6953194	112.515385	24.84716568	-471.1526757	174.0661357	114.4800187	-237.5654737	131.5049672	83.63090518	-269.0051199	234.4154104	70.28845585	-298.4682614	219.1449471	69.7195908	-333.6041801	123.9102993	84.4586149	-304.9871094
620	6.19	-160.4057012	974.2113614	-569.722442	102.7957235	991.0816421	-562.8456115	-18.15355036	1009.717688	-753.3166075	-208.127741	752.2065059	-683.415286	-39.53995812	497.905215	-694.7062199	-175.4505407	497.0031638	-713.7739092	-189.4518149	644.8159652	-697.0278759	-122.9630924	689.7317491	-557.7976449	169.2211698	804.2628357	-635.1152654	31.9231501	499.9316076	-530.2845173	162.4903252	501.7403535	-549.0172123	166.223687	651.7623208	-588.5019522	106.9670243	737.8142597	-489.5960676	-174.156993	450.1261138	-730.6882699	-53.1732652	101.7104481	-829.2761953	-135.1375948	82.45694481	-870.1292422	-116.1689149	381.6138176	-683.1859311	-183.5592877	372.9721806	-768.3946347	169.4885442	463.2287825	-540.048295	92.8744549	101.4582226	-395.9860588	173.0384568	82.12300672	-438.1352942	129.4237669	438.9364568	-468.0961224	185.3140741	394.4200567	-522.2873126	-105.6377826	32.95500942	-677.767134	-80.86210392	46.23735536	-938.8216128	-70.32492353	27.15521916	-722.5497933	-178.4347978	24.5924828	-738.8395874	-168.1507118	35.6603781	-781.4995158	-75.38896583	52.92218101	-754.3966446	112.6646431	25.22355094	-470.7540202	174.464032	112.0409052	-236.1494483	131.7855747	81.74052016	-267.92272	234.7021568	68.3811817	-297.5189999	219.3962015	68.20933303	-332.7284165	124.2310156	82.95780669	-303.9030129
